<svg xmlns="http://www.w3.org/2000/svg" width="183" height="70" viewBox="0 0 183 70">
    <g fill="none" fill-rule="evenodd">
        <path fill="#231F20" d="M39.72 36.76H8.16a7.1 7.1 0 0 0-7.16 7v25.77h31.57a7.1 7.1 0 0 0 7.15-7V36.76zM80.41 1.42H48.85a7.09 7.09 0 0 0-7.15 7v25.77h31.56a7.09 7.09 0 0 0 7.15-7V1.42zM1 1.42h31.57a7.1 7.1 0 0 1 7.15 7v25.77H8.16a7.1 7.1 0 0 1-7.16-7V1.42z"/>
        <path fill="#4D963A" d="M39.1 36.15H7.54a7.09 7.09 0 0 0-7.15 7v25.78H32a7.1 7.1 0 0 0 7.15-7l-.05-25.78zM79.79.82H48.23a7.1 7.1 0 0 0-7.15 7v25.77h31.56a7.1 7.1 0 0 0 7.15-7V.82zM.39.82H32a7.1 7.1 0 0 1 7.15 7v25.77H7.54a7.09 7.09 0 0 1-7.15-7V.82z"/>
        <path fill="#FFF" fill-rule="nonzero" d="M79.5 68.93V55.68h11.39v2.62h-6.82v10.63H79.5zM67.88 65l-7.29-9.29h5L70 61.55l3.6-5.87h4.12l-6.08 9.81a7.39 7.39 0 0 1-2.52 2.64 8.07 8.07 0 0 1-4 .8h-2v-2.52h1.61a5.55 5.55 0 0 0 1.85-.26 2.59 2.59 0 0 0 1.3-1.15m-18.36 1.42h3.58a3.66 3.66 0 0 0 1.95-.42 1.36 1.36 0 0 0 .69-1.17c0-1-1-1.53-3-1.53h-3.2l-.02 3.12zm-4.58 2.51V55.68h13.34v2.39h-8.76V61h3.35a20.33 20.33 0 0 1 4.13.3 5.06 5.06 0 0 1 2.49 1.27 3.12 3.12 0 0 1 1 2.32 3.32 3.32 0 0 1-1.76 3 9.47 9.47 0 0 1-4.91 1.07l-8.88-.03zM169.8 35.61h2.3c.15.85.93 1.27 2.33 1.27s2.22-.42 2.37-1.27h2.3a3 3 0 0 1-1.5 2 6.29 6.29 0 0 1-3.22.73 6.64 6.64 0 0 1-3.13-.68 2.63 2.63 0 0 1-1.45-2.1m1.2 15.92v1.31h-4.57V39.54H171v5.64c0 1 0 1.94-.11 2.93a17.24 17.24 0 0 1 2.22-2.74l4.68-4.46v-1.37h4.58v13.25h-4.58v-6c-.01-.828.03-1.656.12-2.48a14.67 14.67 0 0 1-2.2 2.69L171 51.48zm-19.94 0v1.31h-4.57V39.54h4.57v5.64c0 1 0 1.94-.11 2.93a16.71 16.71 0 0 1 2.22-2.74l4.68-4.46v-1.37h4.57v13.25h-4.57v-6c-.01-.828.03-1.656.12-2.48a14.67 14.67 0 0 1-2.2 2.69l-4.71 4.48zm-8.59-11.94v13.25h-4.58v-5.46h-6.21v5.46h-4.58V39.54h4.58v5.16h6.21v-5.16h4.58zm-30.18 10.75h6.42L115.88 42h-.78l-2.81 8.29zm-4.05 0l4.09-10.75h7.2l4.14 10.75h1.91v5.28h-3l-.48-2.78h-12.31l-.47 2.78h-3v-5.28h1.92zm-3.51 2.5h-4.67V39.54h4.67v13.25zm-7-13.25l-5.44 6.19 6.16 7.06h-5.4L89.1 48l-4 4.76h-4.43l6.17-7-5.48-6.21h5.43l3.26 4 3.41-4 4.27-.01zM68 47.61h4.21L70.15 43 68 47.61zm5.35-8.07l6.2 13.25h-5l-1.24-2.74h-6.4l-1.26 2.74h-4.09l6.38-13.25h5.41zm-28.43 9.22l4.16-.38c.35 1.39 1.61 2.08 3.76 2.08 2.15 0 3.39-.58 3.39-1.77S55.28 47 53.4 47h-1.6v-2h1.44a3.48 3.48 0 0 0 1.89-.43 1.31 1.31 0 0 0 .68-1.16 1.21 1.21 0 0 0-.81-1.15 5.29 5.29 0 0 0-2.19-.4 6 6 0 0 0-2.43.4 2 2 0 0 0-1.11 1.41l-3.79-.42c.56-2.607 3.06-3.91 7.5-3.91a13 13 0 0 1 5.57 1c1.35.66 2 1.51 2 2.56 0 1.38-1.13 2.33-3.41 2.85 2.68.49 4 1.52 4 3.06a3.47 3.47 0 0 1-2.15 3A12.12 12.12 0 0 1 53.21 53a12.58 12.58 0 0 1-6.11-1.18 3.84 3.84 0 0 1-2.18-3.05"/>
        <path fill="#FFF200" fill-rule="nonzero" d="M20.6 47.68l4.06-3.75s4.62-3.82 5.7-5.08a5.1 5.1 0 0 0 .85-2.55 1 1 0 0 1 0-.15h1.53a2.11 2.11 0 0 1-.21 1.46 5.21 5.21 0 0 1-.89 1 1.56 1.56 0 0 1 .6-.23 2.52 2.52 0 0 1 1.95.44 2.79 2.79 0 0 0 1.65.48c.47 0-1.56.93-2.49.59a4.61 4.61 0 0 0-1.82 0A9.45 9.45 0 0 0 29 41.37c-1.18 1.08-3.55 3.12-3.55 3.12l-5 4.84-4.08 6.57c2.34-.9 12.05-13.1 22.73-9.41V48c-8 1.27-23.82 9.31-23.85 12.36a42.29 42.29 0 0 1-5.85 8.59H7.16c3.51-2.59 9-16.92 13.44-21.25m18.5-11.55h-3.75c-.48.33-.85.62-.85.62A1.89 1.89 0 0 1 36 37a5.52 5.52 0 0 0 1.75.57 3.52 3.52 0 0 0 1.34-.4l.01-1.02zm-4.43 0h-1.73a3 3 0 0 0 .06.4c.126.44.05.913-.21 1.29a16.69 16.69 0 0 0 1.88-1.69m.47 2.74a3.75 3.75 0 0 1-1.22-.61 1.35 1.35 0 0 0-1.07-.28 6.33 6.33 0 0 1 1.83-1 2.79 2.79 0 0 1 1.78.7c.273.157.585.233.9.22.47 0-1.28 1.31-2.22 1M21.84 38.93c.47-.89 1-1.82 1.61-2.78H26c-.444.48-.861.984-1.25 1.51-1 1.37-3 3.91-3.89 5.05l-.2.27-2.58 3.62c1.37-4.4 2.15-4.74 3.76-7.67"/>
        <path fill="#FFF200" fill-rule="nonzero" d="M17.69 36.15c-.38 1-.67 1.69-.67 1.69-.76 2.21-1.52 4.43-2.27 6.64a36.64 36.64 0 0 0-2.15 7.05c-.12 1-.19 1.55-.2 0-1.08 4.61-.61 12.49-.18 17.38h1.28c0-3.81-1.39-11.72 1.4-16.66 2.79-4.94 11.91-12.75 14.65-14.91-5.13.95-10.35 5.07-11.82 7.25-.36.53-2.12 3.06-2.8 4 .45-4.33 2.19-8.4 3.76-12.48l-1 .04z"/>
        <path fill="#FFF200" fill-rule="nonzero" d="M17.05 36.15c-1.75 13.56-9.4 26-14 32.78H1.83v-.47c2.69-3.92 9.1-12.34 9.55-17.6.31-3.63-1-9.91-2.16-14.71h2.29a18.67 18.67 0 0 1 1.87 6.78v4.88a3 3 0 0 0 .06-.33c.27-1.4.76-4.64 1.12-6.26a33.69 33.69 0 0 0 .5-5.07h1.99zM41.08 28.18v.75A4.84 4.84 0 0 1 42 28c.67-.52 1.31-1 1.9-1.55 1.51-1.34-.11-.79-.67-.22-.56.57-1.37 1.32-1.73 1.59l-.44.33m0 1.67V32a8.67 8.67 0 0 0 2-1.54c.63-.94.5-1.94.78-2.68.16-.42.88-.82 2.08-1.67.25-.18.5-.36.76-.53 4-3 .85-1.45-.2-.47-2.13 1.31-4.4 2.72-5.12 4a4.84 4.84 0 0 0-.34.74m0 2.45v.8c.158.053.308.123.45.21.207.106.421.2.64.28h2.5a25.94 25.94 0 0 0 2.54-1.26l2.08-1.12c1-.45.63-.86-.53-.23l-1.52.82c-1.29.68-1.78.58-2.18.36a3.61 3.61 0 0 0-2.47-.64 5.45 5.45 0 0 0-1.51.78m0 1.12v.17h.43l-.43-.17m4.54.17h1.06c.14-.11 0-.17 0-.17-.18-.14-.61 0-1.09.17m10.79-10c-.17.09-3.83 1.94-4.18 2.13a4 4 0 0 0-1.13 1.13 6 6 0 0 1-.92 1 9.88 9.88 0 0 0-2.65-.53l.27-.75a4.6 4.6 0 0 1 1.47-1.09 3.93 3.93 0 0 1 1.56-.2 3 3 0 0 0 1.23-.22c1.1-.66 11.27-5.58 4.35-1.48m-3.18 3.94c-.69.3-1.94 1.06-2.33 1.28a9.48 9.48 0 0 1-2.65 1.09 3.66 3.66 0 0 1-1.73-.51s.65-1.51.8-1.74a5.53 5.53 0 0 1 2.37.36 3.19 3.19 0 0 0 1.65.1c.51-.23 1.89-.9 2.62-1.23 4.44-1.84.19.38-.64.72m-5.95-.82a4.36 4.36 0 0 1-1.51 2.49c-.8.516-1.635.974-2.5 1.37a2.09 2.09 0 0 0 .57-1.41 5.72 5.72 0 0 1 .32-1.34c.35-.77 4.72-3.14 5.39-3.52 4.58-4 4.61-3 1.93-.73-.8.68-4.11 2.7-4.2 3.14m-1.53 5.14a5.19 5.19 0 0 1-1.35-.43 2.19 2.19 0 0 0-1.51-.25 10.56 10.56 0 0 1 2.49-1.38 3.89 3.89 0 0 1 2.48.36c1.16.64 3.69-2.39 6.8-2.23 0 0 1 .07 0 .28-2.14.48-8 3.85-8.89 3.65M41.08 22.59a16.11 16.11 0 0 1 2.84-1.24 22.49 22.49 0 0 1 4.33-1.09 9.48 9.48 0 0 1 3.88.3s-4.43.52-6 1.26c-1.57.74-3.73 1.62-5 2.26l-.05-1.49zm0-12.93v1.06c.41-.44.8-.87 1.18-1.3 1.54-1.81-.28-.93-.83-.16-.12.13-.24.26-.35.4m0 1.33v4.39a4.84 4.84 0 0 0 1-1.13c.58-1.2.23-2.39.42-3.31.11-.51.9-1.09 2.16-2.28l.8-.74c4.18-4.11.74-1.85-.33-.53a38.39 38.39 0 0 0-4 3.6m0 4.9V18a9.77 9.77 0 0 0 1.81.3c1 .12 3.62-1.88 4.36-2.41l2.26-1.62c1.11-.69.59-1.11-.67-.2l-1.65 1.19c-1.41 1-2 .94-2.52.74a4.39 4.39 0 0 0-3.05-.42 3.13 3.13 0 0 0-.54.28m0 2.46v2.33a14.39 14.39 0 0 0 3-1.53c1.17-.72 1-.52 2.22-1.32.85-.43.52-.53.52-.53-.46-.27-1.77.64-2.68 1.26a2.7 2.7 0 0 1-2.51 0l-.59-.25M56.54 4.23c-.19.13-4.19 2.85-4.56 3.13a4.32 4.32 0 0 0-1.13 1.51A7.09 7.09 0 0 1 50 10.2c-.42-.32-3.25-.26-3.25-.26s.12-.64.18-.92a5.44 5.44 0 0 1 1.55-1.52 4.26 4.26 0 0 1 1.8-.45 3.49 3.49 0 0 0 1.42-.44c1.14-.95 12.3-8.25 4.84-2.38m-3 5.14c-.76.46-2.11 1.55-2.52 1.86A11.2 11.2 0 0 1 48 12.9a4.47 4.47 0 0 1-2.15-.36s.49-1.89.62-2.19a6.78 6.78 0 0 1 2.76 0 3.73 3.73 0 0 0 2-.11c.56-.34 2.07-1.34 2.88-1.84 4.91-2.82.29.43-.63.95m-7.21-.13a5 5 0 0 1-1.27 3.2 21.4 21.4 0 0 1-2.7 2 2.41 2.41 0 0 0 .41-1.74A6.34 6.34 0 0 1 42.8 11c.27-1 5.37-4.68 6.1-5.23.73-.55 1.28-.95 1.58-1.21 4.41-3.73 4.69-2.66.54.55-1.62 1.26-1 .75-2.54 2-1.35 1.05-2.17 1.63-2.19 2.16m-.85 6.34a6.6 6.6 0 0 1-1.68-.31 2.58 2.58 0 0 0-1.84-.09 11.88 11.88 0 0 1 2.69-2 4.67 4.67 0 0 1 3 .08c1.5.59 3.93-3.37 7.64-3.62 0 0 1.17-.06 0 .34-2.45.87-8.83 5.73-9.86 5.6M39.1 28.55v.77c-.18.18-.37.34-.54.48a2.11 2.11 0 0 0-.62 2 4.09 4.09 0 0 1 0 1.83h-2.4c0-.25.08-.54.14-.91.14-.83 1.82-2.49 2.43-3a7.09 7.09 0 0 0 1-1.18m0 1.28v3.5l-.43.26h-.49c.155-.327.2-.695.13-1.05a5.89 5.89 0 0 1 .18-1.8 2.08 2.08 0 0 1 .61-.91m-4 3.76h-1.23c.73-.77 1.62-1.36 1.48-1a2.19 2.19 0 0 0-.27 1M25.07 33.59a70.17 70.17 0 0 0 4.18-7 5 5 0 0 0 .12-2.7c-.16-1.15 1.18-3.2 1.11-2.61a3.06 3.06 0 0 0 0 1.41c.483.61.696 1.39.59 2.16a4.77 4.77 0 0 1-.6 1.16 1.53 1.53 0 0 1 .52-.36 2.53 2.53 0 0 1 2 0 2.86 2.86 0 0 0 1.74.08c.46-.08-1.26 1.28-2.26 1.17a4.53 4.53 0 0 0-1.78.41 9 9 0 0 0-2 2.09c-.85 1.34-2.59 3.9-2.59 3.9l-.18.3-.85-.01zm1.09 0c2.19-2.23 5.12-5.08 6.54-5.87 0 0 3.23-2.2 6.4-4v1.57a88.52 88.52 0 0 0-3.57 2.43c-1.13.81-4.64 3.88-5.9 4.87-.31.24-.72.61-1.18 1h-2.29zM39.1 12v5a13.92 13.92 0 0 1-2.54 2.21 2.07 2.07 0 0 0 .17-1.79 7.52 7.52 0 0 1-.12-2.17c0-.8 1.55-2.38 2.49-3.31m0 5.62v.18l-.24.06.24-.24m0 .5v2.74a5.22 5.22 0 0 1-1.4-.34 2.29 2.29 0 0 0-1.84-.08 12.29 12.29 0 0 1 2.76-2.2 2.08 2.08 0 0 1 .48-.11m0 3.26v1.18a6.12 6.12 0 0 1-2.08 1 7.22 7.22 0 0 1-2.18-.43A2.26 2.26 0 0 0 33 23a12.42 12.42 0 0 1 2.75-2.2 4.42 4.42 0 0 1 3.06.42c.093.04.19.07.29.09m-5.87-3.44a2.42 2.42 0 0 0-.09 1.33 3.5 3.5 0 0 1 .17 2.63 14.61 14.61 0 0 1-2.14 2.69c.24-.5.24-1.08 0-1.58a4.85 4.85 0 0 1-.28-1.82c0-1.38 2.5-3.94 2.33-3.25m2.92-1.33a4.05 4.05 0 0 1 0 3A12.35 12.35 0 0 1 33.58 22a2.12 2.12 0 0 0 .15-1.8 7.34 7.34 0 0 1-.15-2.2c0-1 1.7-3.23 2.33-3.87a10.45 10.45 0 0 0 1.42-2.33c.56-1 .79-.37.79-.37.21.48-.85 1.91-1.6 2.71a2.53 2.53 0 0 0-.37 2.43m-2 8.89a5.12 5.12 0 0 1-1.57-.54 1.59 1.59 0 0 0-1.32-.25 7.56 7.56 0 0 1 2-1.4 3.45 3.45 0 0 1 2.24.59 2 2 0 0 0 1.11.14c.56 0-1.28 1.73-2.45 1.46M19.65 33.55a9.18 9.18 0 0 1 1.48-2.5 4.61 4.61 0 0 1 1.61-.84c1-.13 2.34-1.86 1.92-1.67a2.85 2.85 0 0 1-1.69.34 2.56 2.56 0 0 0-1.93.51 1.7 1.7 0 0 0-.42.48 5.14 5.14 0 0 0 .32-1.26 2.75 2.75 0 0 0-1.05-1.95 3.19 3.19 0 0 1-.29-1.36c-.06-.59-.89 1.71-.48 2.79a5 5 0 0 1 .48 2.63 28.35 28.35 0 0 1-.94 2.87h1l-.01-.04z"/>
        <path fill="#FFF200" fill-rule="nonzero" d="M24.32 14.85c-.37.83-1.19 3.49-.86 4.43a7.21 7.21 0 0 0 .86 2 2.13 2.13 0 0 1 .45 1.72 12.41 12.41 0 0 0 1.61-3.13 4.07 4.07 0 0 0-1-2.8 2.53 2.53 0 0 1-.47-2.39c.42-1 1.05-2.46.7-2.84 0 0-.17-.29-.42.62-.54 1.33-.38 1.14-.85 2.41M33.24.93h.22c-.1.37-.29 1-.6 1.9-.31.9-1 2.54-1.23 3.15a3.49 3.49 0 0 0 .29 1.92 6.14 6.14 0 0 1 .57 2.61c-.26.19-2 1.1-2 1.1a4.19 4.19 0 0 1-.78-2 11.19 11.19 0 0 1 1-3.18c.23-.46 1-2 1.32-2.82.17-.5.81-2 1.19-2.76m2.33.86c.236.131.463.278.68.44-.5 1.21-.94 2.24-1.11 2.58A3.43 3.43 0 0 0 35 6.25a4.15 4.15 0 0 1-.08 1.82 5.53 5.53 0 0 1-1.18 1.82c-.27.13-.87.38-.87.38s-.51-2.7-.91-3a7.87 7.87 0 0 1 1.13-1.16 4.6 4.6 0 0 0 1.26-1.42c.11-.23.7-1.62 1.23-2.88m2 1.7c.18.223.347.457.5.7-.19.37-.41.79-.67 1.25-.26.46-.48 1-.87 1.78s-3 6.53-3.92 7a8.19 8.19 0 0 1-1.6.51 2.52 2.52 0 0 0-1.64.79 22.34 22.34 0 0 1 1.41-3 5.27 5.27 0 0 1 2.86-2c.52-.14.92-1.05 1.69-2.58.88-1.75.51-1 1.41-2.86.31-.6.58-1.12.83-1.57m-4.84 11c-.87.4-2.09.34-3.16 1.17a12.23 12.23 0 0 0-1.85 2.89 2.9 2.9 0 0 1 1.83-.4 3 3 0 0 0 1.79-.66c1.5-1 3-3.73 4.36-6.32 1.08-1.31 2.61-5.1-.59-.18-.19.31-.37.62-.57.92-.92 1.48-1.32 2.35-1.81 2.58m-2.24 3.78a4.27 4.27 0 0 0-2.94.71 12.13 12.13 0 0 0-1.8 3 2.22 2.22 0 0 1 1.73-.58 7 7 0 0 0 2.16-.38c1-.25 2.69-3 3.19-3.8.3-.45 1.14-1.34 1.75-2.17.61-.83 1.15-2.63-.33-.75-.56.74-1.12 1.53-1.69 2.36-1 1.42-1.53 1.59-2.07 1.58m-2.75 6.62a2.57 2.57 0 0 1-1.29.4 3.66 3.66 0 0 0-2.63.45 15.21 15.21 0 0 0-2.21 2.65 2 2 0 0 1 1.55-.4 5 5 0 0 0 1.83-.13c1.37-.28 3.38-3.29 2.74-3m.72-3.08a4.31 4.31 0 0 0-3 .67 12.53 12.53 0 0 0-1.82 3 2.22 2.22 0 0 1 1.78-.46 7.55 7.55 0 0 0 2.16-.36c1-.24 2.83-2.35 3.34-3.1a10.87 10.87 0 0 1 2-1.89c.91-.77.21-.83.21-.83-.52-.09-1.71 1.25-2.35 2.15a2.65 2.65 0 0 1-2.31.9m-.91-9a6 6 0 0 0 .66 1.52 2.48 2.48 0 0 1 .45 1.61 11.92 11.92 0 0 0 1.42-3 4.29 4.29 0 0 0-.68-2.84c-.88-1.29 2.53-4.51 2-8.1 0 0-.17-1.12-.34 0-.36 2.53-3.85 9.71-3.53 10.66m-.69-1.64c-.37.82-1.82 3.75-1.49 4.7a7.21 7.21 0 0 0 .86 2 2.13 2.13 0 0 1 .45 1.73 12.6 12.6 0 0 0 1.61-3.13 4 4 0 0 0-1-2.8c-.3-.43-.47-1 .22-2.56l.84-1.84c.64-1.41.12-1.8-.33-.6l-1.16 2.5zm-6.73 14.69c.215.5.512.96.88 1.36.35.297.54.742.51 1.2a7.31 7.31 0 0 0 1-2.21 3.17 3.17 0 0 0-1-2 1.86 1.86 0 0 1-.36-1c-.08-.53-1.44 1.62-.95 2.67m2.17-1.19c.4.485.567 1.12.46 1.74a12.24 12.24 0 0 0 1.6-3.14 4 4 0 0 0-1-2.8 2.82 2.82 0 0 1-.41-1.49c0-.77-1.69 3.11-1.49 3.72a6.53 6.53 0 0 0 .86 2M12.52 12.2a21.47 21.47 0 0 1 2.06 3.87C16 19 17.35 28.53 17.35 28.53a42.7 42.7 0 0 1 0 5.06h-2.3c-.1-1.92-.17-5.79-.31-7a53.54 53.54 0 0 0-1.06-6.5c-.4-1.38-1.2-3.56-1.68-5.17-.48-1.61-3-5.24-3-5.24a10.34 10.34 0 0 1 3.57 2.52m-4 21.39c-.36-1.32-.67-2.41-.9-3.11a16.86 16.86 0 0 1 2.48 3.11H8.57z"/>
    </g>
</svg>
