<svg xmlns="http://www.w3.org/2000/svg" xmlns:xlink="http://www.w3.org/1999/xlink" width="611" height="462" viewBox="0 0 611 462">
    <defs>
        <path id="a" d="M.25.25h1078.788v720.5H.25z"/>
    </defs>
    <g fill="none" fill-rule="evenodd" opacity=".397" transform="rotate(90 508.466 212.983)">
        <mask id="b" fill="#fff">
            <use xlink:href="#a"/>
        </mask>
        <path stroke="#7EBC98" stroke-width="5" d="M-8.748 507.818c3.923-.5 11.714 1.788 13.13 5.437 9.23.654 18.7 9.127 26.853 13.342 5.63 2.914 11.224 5.118 17.213 6.434 6.017 1.323 10.276 2.118 14.525 6.344 3.48 3.46 4.344 10.562 9.774 9.125 1.117-.296 2.221-4.023 4.514-4.383 3.704-.58 5.205 2.022 6.495 5.106 1.974 4.726-1.021 13.348 6.287 14.703 6.806 1.26 10.556-6.092 13.194 2.896.674 2.295-.143 4.803.484 7.049 1.141 4.093 4.773 6.528 8.12 9.525 6.832 6.117 13.65 13.68 21.36 18.627 4.892 3.139 11.305 6.053 17.356 5.544 6.183-.521 8.373-7.295 14.814-6.725 9.186.816 18.467 11.18 26.197 15.656 9.869 5.71 17.123 13.627 27.472 18.266 14.284 6.402 29.171 9.448 43.599 16.566 8.545 4.214 15.108 8.566 21.74 15.36 8.275 8.478 19.338 13.255 27.783 21.14 9.63 8.992 19.86 20.844 33.675 19.469 4.819-.48 10.94-1.887 15.483.538 4.563 2.434 6.114 8.424 9.438 12.123 6.61 7.359 12.923 8.29 22.415 8.29" mask="url(#b)"/>
        <path stroke="#7EBC98" d="M-6.837 522.5c19.678 7.302 36.88 21.084 48.279 38.682 2.94 4.54 5.535 9.362 9.23 13.314 14.566 15.583 41.525 13.438 56.408 28.722 2.35 2.412 4.36 5.234 7.2 7.05 5.691 3.636 13.047 2.369 19.802 2.372 15.23.007 29.446 7.09 43.008 14.01 12.033 6.138 24.067 12.276 36.1 18.417 22.912 11.688 46.153 23.605 64.948 41.15 3.703 3.459 7.219 7.125 11.069 10.422 10.03 8.594 22.05 14.48 33.924 20.273 12.892 6.29 25.815 12.59 39.298 17.493m-141.141-85.81c-1.574 1.866-5.89 2.112-8.303 1.841-2.476-.277-4.359-2.789-6.765-2.784-4.374.005-6.681 7.397-11.009 8.294-8.288 1.718-9.95-2.904-8.924-10.04.445-3.09.962-5.798-2.88-7.081-3.198-1.068-9.532-1.036-12.848-.675-3.705.404-7.123 1.594-10.16-.838-2.435-1.95-3.58-5.434-6.51-6.914-3.697-1.866-9.172-.836-13.265-.836-5.299 0-9.431-.25-14.104-3.04-9.332-5.57-17.148-6.342-24.785 1.506-7.559 7.765-17.306 13.917-27.34 18.124-7.191 3.015-14.713 4.359-21.798 8.098-8.55 4.51-16.338 9.454-24.474 14.682-4.59 2.948-9.82 4.882-14.644 6.989-3.18 1.387-7.864 2.513-10.195 4.905-3.283 3.372-8.295 2.916-12.3 5.525m104.22-52.255c-2.424-7.279-7.937-13.222-14.3-17.521-6.365-4.3-13.594-7.124-20.788-9.816-24.89-9.314-50.581-17.547-77.127-18.913m77.155 63.206c-14.999-6.316-26.214-18.925-37.916-30.221-2.21-2.135-4.461-4.238-6.945-6.046-11.016-8.023-26.54-9.371-38.778-3.369m16.355 38.15c17.082 7.85 34.634 15.824 53.391 17.154 2.275.16 4.6.23 6.737 1.023 6.965 2.578 9.025 11.152 12.92 17.466 4.09 6.631 10.76 11.191 17.305 15.424a632.962 632.962 0 0 0 59.79 34.197m-83.246-84.719c37.834 20.001 75.176 40.932 111.982 62.766 3.533 2.097 7.074 4.209 10.858 5.812 4.016 1.701 8.32 2.84 11.967 5.228 4.643 3.044 8.572 8.197 14.125 8.197m-79.953-44.227l-25.07 25.027m165.59-34.237l-59.036 58.935m38.51-38.85c5.89-.548 11.167 3.35 15.787 7.038 4.054 3.238 8.126 6.49 11.628 10.316 5.586 6.105 9.766 13.699 16.679 18.253a25.27 25.27 0 0 0 14.869 4.108" mask="url(#b)"/>
        <path stroke="#7EBC98" stroke-width="5" d="M-18.792 415.817l136.926 67.094c15.091 7.395 30.24 14.823 44.122 24.297 20.614 14.066 38.163 32.463 59.7 45.07 36.302 21.251 81.693 24.767 115.37 49.971 7.364 5.511 14.167 12.059 22.667 15.573 7.887 3.26 16.617 3.647 24.983 5.339 34.567 6.988 60.277 35.234 91.065 52.436 46.308 25.872 101.998 25.795 154.922 29.333 79.594 5.32 158.185 20.251 236.698 34.367 15.065 2.707 33.24 4.352 43.09-7.367 11.282-13.425 2.673-34.658-10.474-46.263-13.147-11.604-30.275-18.64-41.4-32.196-15.881-19.35-15.745-46.722-16.776-71.734-1.028-25.01-5.972-53.32-26.998-66.9-26.417-17.066-64.668-1.871-91.158-18.824-5.552-3.554-10.324-8.407-16.382-11.007-12.205-5.238-26.052-.2-38.902 3.16-32.622 8.531-68.127 5.57-98.888-8.241-17.784-7.985-33.803-19.355-49.69-30.65-54.558-38.78-109.115-77.562-163.673-116.343-15.713-11.17-33.934-22.916-52.805-18.97-6.659 1.391-13.106 4.735-19.876 4.064-5.241-.52-9.913-3.392-14.376-6.19-28.623-17.94-57.989-36.625-81.446-60.5-20.528-20.893-51.9-26.903-78.685-15.054-4.606 2.037-9.216 4.052-13.858 5.921-43.182 17.401-91.16 22.723-137.106 15.21m580.42 207.06c9.085-8.735 18.17-17.469 27.256-26.202 11.183-10.748 22.713-22.017 28.104-36.56 10.921-29.448-5.411-66.343 12.783-91.943 4.122-5.797 9.748-10.456 13.44-16.534 11.99-19.74.215-47.53 12.206-67.267 4.205-6.92 11.084-12.281 13.594-19.976 1.817-5.577 1.075-11.653 2.103-17.427 1.56-8.76 7.042-16.236 12.369-23.363l40.109-53.665c6.647-8.894 13.362-17.904 17.67-28.139 6.077-14.434 7.024-30.433 7.862-46.072.74-13.802 1.425-27.921-2.483-41.18-3.907-13.257-13.349-25.722-26.67-29.402M-15.785 243.617a326.07 326.07 0 0 0 48.499-1.15c8.677-.853 17.624-2.16 25.012-6.793 6.179-3.872 10.773-9.76 15.234-15.527 11.195-14.471 22.505-29.134 29.825-45.904 7.32-16.768 10.347-36.136 4.434-53.45-3.346-9.803-9.344-18.448-15.415-26.841C75.987 72.085 58.981 50.755 38.02 33.758 17.057 16.76-8.28 4.227-35.19 2.201m143.64 147.886c13.161 1.617 24.59 9.494 35.43 17.135 13.819 9.741 27.637 19.484 41.456 29.226 14.56 10.264 29.284 20.62 45.794 27.312 16.51 6.693 35.213 9.488 52.222 4.192 14.334-4.461 26.324-14.206 37.924-23.736l32.1-26.37c4.7-3.86 9.486-7.82 12.685-12.99 3.296-5.331 4.685-11.586 6.02-17.71 7.663-35.128 15.334-70.294 20.432-105.884 1.992-13.901 3.592-27.872 6.398-41.63 3.548-17.397 9.008-34.364 15.518-50.882M380.745 89.215a1104.591 1104.591 0 0 0 114.112-34.13c20.615-7.4 41.007-15.411 61.497-23.153 4.075-1.54 8.326-3.094 12.665-2.711 4.941.434 9.298 3.317 13.244 6.322 26.346 20.06 44.982 50.002 51.345 82.5 4.77 24.346 3.317 51.092 16.986 71.795 13.365 20.24 38.039 29.703 55.203 46.841 22.196 22.16 29.788 54.773 46.442 81.353 18.643 29.754 48.261 51.151 79.631 66.922 31.369 15.769 64.948 26.585 97.384 40.026 6.376 2.642 13.051 5.658 16.952 11.353 3.96 5.786 4.305 13.23 4.515 20.24l2.202 73.577c.61 20.374-33.63 24.857-42.871 43.022-6.867 13.496-3.958 30.584 4.765 42.96 8.724 12.374 22.43 20.497 36.76 25.379 9.912 3.378 21.031 5.312 30.683 1.256 2.862-1.202 5.518-2.904 8.487-3.808 8.35-2.544 17.098 1.603 24.98 5.355a354.33 354.33 0 0 0 91.305 29.078" mask="url(#b)"/>
        <path stroke="#7EBC98" d="M103.337-7.39c-6.005 14.06-5.951 29.864-5.798 45.155.12 12.13.362 24.768 5.917 35.55 8.19 15.891 25.746 24.042 40.522 34.098 11.017 7.497 21.608 18.758 24.222 31.12 1.25 5.91 6.54 10.208 12.58 10.262 8.792.082 17.84 3.425 25.547 7.98 11.62 6.87 21.615 16.337 33.615 22.517 12.296 6.333 27.037 9.516 35.72 20.282 7.8 9.674 8.658 23.036 9.084 35.457.408 11.872-.437 26.034-10.59 32.193-9.914 6.014-22.568.644-32.836-4.744l-14.162-7.428c-5.912-3.101-11.978-6.325-16.3-11.417-4.32-5.092-6.527-12.569-3.632-18.587-1.964-3.116-6.643-2.726-10.058-1.348-3.414 1.378-7.037 3.4-10.549 2.297-2.976-.935-4.863-3.859-7.582-5.39-7.738-4.357-16.586 4.04-25.448 4.587-7.332.452-13.793-4.544-20.9-6.404-9.514-2.49-19.796.892-27.754 6.672-7.956 5.78-14.013 13.743-19.952 21.586m418.322 84.148c5.544 2.991 8.107 9.791 13.487 13.07 2.51 1.53 5.443 2.172 8.317 2.791l74.119 15.942c20.777 4.47 42.004 8.964 63.118 6.536 14.547-1.674 28.504-6.584 42.254-11.621 19.448-7.129 39.97-15.499 51.682-32.588M1047.575 726.5c-12.98-25.84-40.532-40.873-67.662-50.855-27.13-9.982-56.003-16.8-79.803-33.211-5.334-3.678-10.594-8.136-12.695-14.264-3.674-10.716 3.121-23.993-3.43-33.233-1.766-2.49-4.342-4.345-5.969-6.929-1.708-2.72-2.219-5.998-2.692-9.174-3.288-22.05-5.746-47.214 8.785-64.115 3.721-4.325 8.437-7.896 11.162-12.91 2.725-5.014 2.584-12.347-2.27-15.343-9.621-5.933-24.47 10.662-31.755 2.017-1.967-2.335-2.166-5.642-3.298-8.48-3.935-9.853-16.945-11.3-27.523-12.07a193.691 193.691 0 0 1-60.165-14.282c-25.114-10.43-48.458-26.29-75.296-30.656-28.551-4.649-57.718 4.305-86.557 2.035-44.003-3.466-81.404-32.108-115.96-59.585-17.449-13.875-38.654-26.75-58.137-37.582-10.997-6.113-22.528-11.445-32.484-19.14-9.955-7.698-18.406-18.274-20.397-30.704-.523-3.266-.606-6.654-1.82-9.73-1.674-4.243-5.554-7.54-10.01-8.507-3.369-.733-7.467.166-9.06 3.225-.904 1.73-.834 3.781-1.178 5.703-1.28 7.151-8.661 12.118-15.921 12.318-7.26.198-14.153-3.496-19.55-8.359-4.112-3.704-7.665-8.326-8.845-13.735-1.178-5.409.469-11.665 4.993-14.854 1.968-1.387 4.515-2.312 5.494-4.513 1.079-2.424-.277-5.191-1.676-7.445a111.872 111.872 0 0 0-15.874-20.026c-28.974-28.998-59.041-57.843-89.703-85.048-3.264-2.896-6.585-6.017-8.086-10.114-1.909-5.21-.53-11.008 1.163-16.292 3.119-9.74 7.248-19.12 11.369-28.48 2.296-5.216 4.622-10.484 8.05-15.036 4.135-5.489 9.695-9.706 15.177-13.848 3.839-2.9 7.835-5.873 12.528-6.919 4.694-1.045 10.304.398 12.638 4.605a52.635 52.635 0 0 0 15.978-19.54c1.806-3.813 3.625-8.305 7.637-9.606 3.419-1.107 7.058.611 10.646.787 12.74.63 18.82-16.717 30.877-20.887m-37.747 103.89l67.727 67.757m-41.927-93.568l53.214 53.238 125.315 76.512-48.836 77.897-33.633 62.685s3.072 7.222 12.593 9.68c9.522 2.458 9.215 11.062 14.436 14.443 5.221 3.38 13.771-1.203 29.743 16.564M278.052 145.114l97.512-97.555-7.486-64.616m-75.284 176.92l95.634-95.676m32.332 85.248l-61.82 101.736m35.629-14.749l46.288-74.718 34.799-57.107-6.615-40.41-9.51-81.734m29.947 6.453l13.36 109.238s5.068 20.281 0 41.022c-5.068 20.743-.922 38.718 6.91 54.39 7.833 15.67 5.53 64.53 5.53 64.53l23.282 20.74 29.24-20.74L604.196 36.38 620.32-24h8.101l17.699 59.459-2.303 26.272 80.073.447m-172.68-72.812s13.364 117.535 19.351 135.972c5.99 18.438 57.616 111.084 57.616 111.084l49.273 104.17 8.752 58.996h45.15s45.15 41.484 65.884 51.624c20.732 10.141 50.217 13.828 80.166 8.759l42.534-38.4m-161.739-94.323l361.082-53.492M991.11 201.45h19.9m28.103 260l-11.663-81.474-12.848-90.714-15.601-98.62L857.129 83.394m179.22 127.216l24.803 164.067M960.08 243.95l108.98-13.409 24.419 10.49" mask="url(#b)"/>
        <path stroke="#7EBC98" d="M960.415 215.928l15.32 7.282 35.592 242.093m0-317.134L937.177 250.5l4.265 19.697 29.354 180.355v22.587l-3.912 77.48M819.269 97.004l94.418-32.729 2.469 32.729-71.555 91.729 18.884 12.966 105.93-137.424-6.908-23.507-29.476-26.275L920.284-21l-13.045 3.227 4.605 49.322s-56.648 7.375-92.575 33.188l-70.004 14.751 66.32 76.056-11.513 111.55v43.56l3.46 60.967s10.044 36.081-26.876 69.029M758.598 612.5l80.478-207.581-13.51-104.163-76.301-221.268-22.823-41.695s-27.994-19.826-36.592-45.84m-154.64 48.64s23.226 5.86 60.07-3.36c36.847-9.218 90.272 13.059 136.942-7.606C778.895 8.962 807.142-21 807.142-21M603.879 61.97h40.377s55.948 23.577 61.826 43.057c0 0 39.345 29.006 41.186 55.127 0 0 21.747-1.719 32.06 6.515m2.12-50.275s-42.469 24.707-55.673 34.848c-13.201 10.141-8.29 37.797-19.649 51.935-11.361 14.135-15.966 17.423-16.275 20.696-.306 3.273 0 23.555 0 23.555l-38.416 37.492-24.83-18.132-58.342-8.451m50.425-39.667l-104.955-12.597-10.41-6.278 5.6-8.71m-148.467 73.943l-.984-52.326 9.607-52.593 30.028 26.06 81.106 50.503 35.546 21.665M381.17 270.475l12.077 1.537 11.974 24.583s26.405 7.99 42.987 17.517c16.58 9.526 74.61 56.363 74.61 56.363s11.362-4.737 28.862-2.586c17.502 2.152 21.087 10.746 46.776 9.521l-59.424-98.331-8.23 4.609-42.742 78.237-25.466 46.772m135.862-59.092l-59.424-10.018L376.83 222.843l-17.359-10.141-28.669-15.107-66.7-66.756 96.905-96.986 28.996 26.733m3.244 211.426l110.075-169.937 64.94-112.473M394.607 29.627s16-7.758 26.664 2.997c10.663 10.756 36.412 29.004 57.027 29.347m37.46 18.565s30.397 12.626 43.907 16.314c13.508 3.687 34.04 6.447 34.04 6.447s47.326 12.913 65.748 19.673c18.424 6.76 66.563 3.659 81.028 18.27M758.937-8.045l61.255 97.674 2.764-100.026m-2.764 100.026l-4.607 65.916s5.067 17.055 29.016 33.189m18.884 12.966s17.502 19.3 26.252 40.504c8.752 21.204 21.643 62.658 21.643 62.658l5.34-.792L934.7 427.868l-3.97 131.008m2.5-82.518l109.616-15.231a85.236 85.236 0 0 1 32.426 1.738l30.012 7.509M969.416 64.275l1.994 11.678 39.917 28.887m-12.55-9.082l-109.04 146.445-151.874 48.099m6.285 13.22c26.663-10.591 32.29 1.832 48.87 7.132s22.567-9.91 37.075-12.675c6.084-1.16 15.37-1.347 24.1-1.174 12.42.247 24.698-3.437 34.513-11.055 15.215-11.804 34.816-15.429 34.816-15.429l13.654-19.82-21.02-153.497s34.81-42.563 47.795-51.32c0 0 20.355-8.45 22.505-52.395 0 0 11.976 15.366 27.326 21.511M116.977 234.08l620.886 346.46 29 10.641 35.826 13.33 40.416-3.707 168.222-68.202 93.956-53.93" mask="url(#b)"/>
        <path stroke="#7EBC98" d="M999.644 536.918l42.91-76.081 25.299-86.189 16.589-222.398m-73.422 312.762l10.079 61.514 79.934 45.73m-432.57-83.797l90.952 48.46m-62.418-33.257l-109.94 198.916m62.721-210.519L547.9 673.726m-72.07 2.205L582 486.054m-40.106-21.294L436.9 652.151m29.783-222.886l-104.484 189.78m85.705-181.227l-58.063 104.17h-87.555s-16.59-1.382-40.091-14.288c-18.566-10.197-80.557-46.856-105.776-61.804a47.328 47.328 0 0 0-23.403-6.61l-4.534-.073a47.36 47.36 0 0 1-22.942-6.34l-126.286-72.925M95.12 242.442l625.587 347.483 81.103 29.96 40.897-19.377M77.346 248.838l581.592 323.684s36.883 20.63 42.414 25.854c0 0 59.599 10.755 84.79 23.047 25.19 12.291 97.385 55.005 108.753 102.327M648.9 590.687L42.833 257.234m141.972-8.396l-49.027 83.733L664.794 625.11l19.355-30.114M186.066 360.38l42.783-74.626m7.39 102.372l39.977-71.997m9.013 99.086l38.1-65.896m48.659-4.896l-50.93 90.607s-12.32 13.62-13.704 23.3c-1.382 9.68-7.142 24.89-23.73 23.046l-20.738 32.496m21.77 63.652l42.821-69.867M-15.678 317.821l415.964 230.467L609.87 661.303l25.123 21.578M54.198 263.488L8.9 342.098m26.966-83.757l-18.364 33.054m138.552 77.13l-176.8-98.682m159.442-38.884l-84.498 148.99L20.5 403.765m38.862-32.925s-28.497-21.753-68.587-35.58m.613 28.654l598.875 332.861" mask="url(#b)"/>
        <path stroke="#7EBC98" stroke-width="3" d="M479.906 612.5L407.42 742" mask="url(#b)"/>
        <path stroke="#7EBC98" d="M460.815 647.162l-162.09-92.253M128.98 419.387l471.169 259.88 132.546 15.672m-624.047-240.03l57.38-105.209m-30.287-16.748l-38.405 69.353-42.366-23.414m92.176 5.427L-14.497 297m244.96 88.328l-24.367 42.576v14.75l-38.857 68.952m225.657-123.099l-36.854 66.26m71.376-47.01l-36.688 66.19s-7.59 18.411-13.811 23.942c-6.221 5.531-32.148 40.593-38.118 59.513m70.158-49.364L685.38 660.829l61.14 18.437m-345.86-156.34l217.797 123.216 67.23 33.124 58.017 5.531 34.614 5.302 18.524 12.86M692.106 711.5l4.896-47.168 24.325-36.075 49.155-122.165" mask="url(#b)"/>
        <path stroke="#7EBC98" d="M801.964 619.298l-10.413 4.198-7.439 16.666-70.095 73.05M650.235 587.5l51.085 10.322m-53.947-5.162l33.066 7.44 40.12 28.307 146.27 93.058M724.547 619.298s35.257 18.92 54.722 25.912l43.701 29.315 6.354 23.08M817.45 670.82L783.035 723" mask="url(#b)"/>
        <path stroke="#7EBC98" stroke-width="3" d="M873.8 666.778s10.802 17.025 19.092 26.235c8.29 9.211 16.243 18.985 12.896 32.237M136.723 230.774l29.145-48.024" mask="url(#b)"/>
        <path stroke="#7EBC98" d="M79.929 248.237c-2.186-9.244-13.65-19.466-13.65-19.466l-9.964-7.675s-35.017-64.48-61.279-76.455m92.412 56.65s22.313 12.324 27.61 32.645m-5.763-105.184l-52.98 92.344-19.54 21.307m19.54-21.307l-72.336-37.307m12.44 33.824s44.608 11.466 42.461 24.515m-39.697-28.17l34.555-78.068 14.514-53.426 27.567-9.288m-27.567 9.288l-10.75-28.786-49.147-34.544M25.277 24.8L-7.729 64.27 45.717 87.3m-8.216-33.622l9.347-11.907M-4.964 79.7l23.958 32.01-4.353 48.78m-33.887-41.412l52.984 16.812 70.51 35.435M46.848 39.86l10.849-18.194-7.142-38.688m-18.43 6.679c0 .69 3.457 20.265 3.457 20.265L25.215 23.51M11.622 13.378l23.96-3.455 22.115 11.744 38.01-36.845m54.455 8.758c-.397 8.826 5.37 17.162 13.024 21.582 7.651 4.422 16.867 5.418 25.68 4.75 4.031-.307 8.067-.944 11.868-2.32 2.689-.974 5.52-2.333 8.276-1.57 3.498.97 5.2 4.84 7.913 7.25 3.929 3.49 10.203 3.617 14.7.9 4.498-2.718 7.23-7.84 7.8-13.06.351-3.208-.01-6.573 1.226-9.552 1.105-2.668 3.351-4.675 4.92-7.098a15.848 15.848 0 0 0 2.288-11.222m112.777 50.633l-17.048-15.659s-21.066-.454-27.58-9.132m27.58 9.132l9.905-34.974m38.688 61.218L380.805-17.25m530.873 48.82l1.843 32.7m-2.378-38.416l-24.958-36.196m203.338 369.46l-56.518 174.323s-40.8 60.594-47.892 108.135m11.566-39.696l99.294 36.879m-53.757 16.991l13.213-40.634 44.23-75.227m-46.721-31.607l54.094 28.536m-307.315-169.03s54.933-12.951 79.07-12.232l44.573-.029m-59.906 21.012l-.154 22.858-2.305 42.082 50.683-43.293 193.51-30.397m-237.051 93.424l-7.142-19.734M295.656 561.97c-7.296.581-15.123 1.051-21.43-2.661-3.111-1.833-5.588-4.544-8.235-7.001-3.553-3.3-7.47-6.18-11.378-9.05-3.383-2.485-6.876-5.023-10.943-6.065-6.678-1.71-13.974.854-20.542-1.24-12.515-3.988-16.582-22.622-29.545-24.75-2.65-.434-5.377-.075-8.036-.446-3.9-.546-7.544-2.73-9.863-5.914-1.971-2.705-3.185-6.237-6.164-7.768-3.062-1.572-6.744-.392-10.186-.463-5.445-.111-10.333-3.439-14.118-7.353-3.784-3.915-6.82-8.519-10.74-12.299-9.72-9.368-23.626-12.646-36.81-15.55-9.206-2.028-17.086-10.003-24.183-16.204-4.18-3.653-7.992-7.735-12.422-11.078-15.88-11.987-37.137-12.949-56.477-17.629-3.96-.957-8.56-2.794-9.304-6.797" mask="url(#b)"/>
        <path stroke="#7EBC98" stroke-width="3" d="M480.414 612.25l-162.727-88.04 10.108-16.497m523.122-113.465L1011.05 174.25 863.344 376.581l-27.923 54.386v30.516" mask="url(#b)"/>
    </g>
</svg>
