<svg xmlns="http://www.w3.org/2000/svg" width="320" height="68" viewBox="0 0 320 68">
    <g fill="none" fill-rule="evenodd">
        <path fill="#1A1A18" d="M276.992 60.839l1.948-3.217a1.953 1.953 0 0 1-.557-.195 1.608 1.608 0 0 1-.556-.49 2.287 2.287 0 0 1-.323-.662 2.577 2.577 0 0 1-.106-.762 2.432 2.432 0 0 1 .156-.902c.103-.264.265-.502.473-.695.237-.206.52-.353.824-.429.387-.1.786-.147 1.185-.139h2.382v7.714h-.818v-3.34h-1.736l-2.026 3.34h-.968l.122-.223zm1.213-5.326c-.005.225.03.449.1.662.056.172.151.329.279.457.142.13.314.224.5.272.261.072.531.106.802.1h1.714v-2.96h-1.709a1.859 1.859 0 0 0-1.302.367c-.127.126-.223.28-.278.45-.073.21-.109.43-.106.652zm-10.462-2.165h.662v3.261h4.012v-3.26h.835v7.713h-.835v-3.74h-4.012v3.762h-.807v-7.736h.145zm-9.773 0h.662v3.261h4.013v-3.26h.807v7.713h-.807v-3.74h-4.013v3.762h-.807v-7.736h.145zm-8.504 0h4.492v.701h-3.824v2.56h3.64v.713h-3.662v3.072h3.896v.69h-4.686v-7.736h.144zm-9.171 7.107v-.846l.24.2c.417.365.935.594 1.485.657.26.03.523.046.785.045.315.005.63-.034.935-.117.243-.064.468-.18.662-.34.18-.146.316-.339.395-.556.096-.243.143-.502.14-.763a1.43 1.43 0 0 0-.129-.612 1.224 1.224 0 0 0-.378-.456 1.82 1.82 0 0 0-.618-.295 3.161 3.161 0 0 0-.84-.1h-1.347v-.702h1.347c.253.004.505-.024.751-.083a1.67 1.67 0 0 0 .557-.24.924.924 0 0 0 .322-.367c.077-.161.116-.338.112-.517a1.725 1.725 0 0 0-.106-.635 1.146 1.146 0 0 0-.3-.45 1.297 1.297 0 0 0-.557-.279 3.706 3.706 0 0 0-.93-.1 4.024 4.024 0 0 0-.556.034c-.165.021-.33.055-.49.1-.16.052-.326.113-.5.183a9.147 9.147 0 0 0-.557.256l-.212.112v-.852l.09-.039c.178-.072.356-.133.528-.195l.557-.161c.194-.047.391-.084.59-.111.2-.022.4-.034.6-.034.396-.007.791.038 1.175.134.303.07.584.213.818.417.203.184.363.41.467.663.104.273.155.564.15.857.001.199-.025.397-.077.59a1.831 1.831 0 0 1-.24.517c-.104.162-.24.3-.4.406l-.15.095c.082.037.162.08.239.128.185.113.346.263.473.44.128.181.226.382.29.595.063.228.095.464.094.701.004.35-.055.696-.173 1.024a1.998 1.998 0 0 1-.528.78 2.226 2.226 0 0 1-.896.484 4.346 4.346 0 0 1-1.241.155c-.3 0-.557 0-.813-.033a4.068 4.068 0 0 1-1.19-.312c-.192-.079-.378-.17-.557-.272l-.073-.045.056-.061zm-7.88-7.107h4.485v.701h-3.818v2.56h3.662v.713h-3.662v3.072h3.896v.69h-4.725v-7.736h.162zm-8.732 0h2.393c.329-.004.657.04.974.128.272.075.527.205.745.384.204.17.364.385.468.629.109.267.162.553.156.84a2.65 2.65 0 0 1-.078.668 1.48 1.48 0 0 1-.245.507 1.948 1.948 0 0 1-.39.356l-.11.072c.089.042.176.088.26.14.18.107.334.249.457.417.136.185.24.392.306.612.068.239.102.486.1.734a2.46 2.46 0 0 1-.167.935c-.11.275-.283.519-.506.713-.234.201-.51.35-.807.434-.343.1-.7.149-1.057.145h-2.644v-7.714h.145zm.656.696v2.621h1.67c.248.004.494-.024.735-.083.18-.045.348-.126.495-.24.125-.109.222-.246.284-.4a1.887 1.887 0 0 0 0-1.18 1.052 1.052 0 0 0-.284-.39 1.33 1.33 0 0 0-.495-.245 2.81 2.81 0 0 0-.735-.083h-1.67zm0 3.339v3.01h1.792c.275.006.548-.028.813-.1.204-.047.394-.14.557-.272.144-.121.254-.279.317-.456a2.143 2.143 0 0 0 0-1.364 1.046 1.046 0 0 0-.312-.45 1.436 1.436 0 0 0-.556-.273 3.161 3.161 0 0 0-.813-.095h-1.798zm-9.177-4.013h4.492v.702h-3.824v2.56h3.662v.69h-3.662v3.072h3.896v.69h-4.73v-7.736l.166.022zm-8.192 0h2.093c.355-.003.71.044 1.052.14.29.083.56.231.784.434.217.196.381.443.48.718.109.31.162.638.155.968a2.71 2.71 0 0 1-.156.963c-.09.277-.246.527-.456.729-.225.202-.494.35-.785.434a3.762 3.762 0 0 1-1.052.139h-1.436v3.194h-.801v-7.74l.122.021zm.657.702v3.122h1.436c.243.004.485-.03.718-.1.19-.061.366-.164.512-.301.144-.134.254-.3.323-.484.075-.218.11-.448.105-.68a1.92 1.92 0 0 0-.105-.672c-.07-.184-.18-.35-.323-.485a1.42 1.42 0 0 0-.512-.3 2.332 2.332 0 0 0-.718-.1h-1.436zm-9.166-.702h4.486v.702h-3.818v2.56h3.662v.69h-3.662v3.072h3.896v.69H198.3v-7.736l.161.022zm-9.9 7.57v-7.57h5.62v7.714h-.8v-7.046h-4.019v7.024h-.801v-.123zm-12.967-7.57h.673v7.714h-.818v-7.736l.145.022zm-9.767 0h.662v3.262h4.013V53.37h.807v7.714h-.807v-3.762h-4.013v3.762h-.807v-7.736l.145.022zm-13.596 7.486l3.044-4.363-3.155-3.123h1.113l3.612 3.568V53.37h.795v3.568l3.618-3.568h1.113l-3.206 3.1 3.206 4.592h-1.024l-2.783-3.996-.946.924v3.072h-.796V57.99l-.94-.924-2.783 3.996h-1.024l.156-.206zm-6.294-7.486h.773c1.013 2.572 2.03 5.143 3.05 7.714h-.896l-.913-2.332h-3.394l-.913 2.332h-.852c1.013-2.571 2.03-5.142 3.05-7.714h.095zm.328 1.041l-1.436 3.64h2.85l-1.414-3.64zm-11.626-1.04h6.122v.695h-2.744v7.018h-.807v-7.04h-2.727v-.696l.156.022zm-8.72 0h.662v3.26h4.012v-3.26h.807v7.713h-.807v-3.762h-4.012v3.762h-.807v-7.736l.145.022zm-7.09 0h.773c1.013 2.57 2.031 5.142 3.055 7.713h-.901l-.913-2.332h-3.417l-.907 2.332h-.857c1.013-2.571 2.03-5.142 3.05-7.714h.117zm.328 1.04l-1.436 3.64h2.85l-1.414-3.64zm-11.025-1.04h2.393c.33-.005.657.038.974.127.273.075.527.206.746.384.203.17.364.386.467.63.109.266.162.552.156.84a2.65 2.65 0 0 1-.078.667 1.391 1.391 0 0 1-.25.507c-.111.137-.24.259-.384.362l-.111.066c.089.045.178.09.261.14.178.107.334.249.456.417.136.185.24.392.307.612.069.239.102.486.1.735a2.46 2.46 0 0 1-.167.935c-.11.274-.284.518-.507.712-.234.202-.51.35-.807.434-.343.1-.7.15-1.057.145h-2.666v-7.736l.167.022zm.657.695v2.621h1.67c.247.005.494-.023.734-.083.18-.044.349-.126.495-.24a.98.98 0 0 0 .279-.4 1.786 1.786 0 0 0 0-1.18.985.985 0 0 0-.279-.39 1.33 1.33 0 0 0-.495-.244 2.838 2.838 0 0 0-.735-.084h-1.67zm0 3.34v3.01h1.786c.275.005.548-.028.813-.1.204-.047.394-.14.556-.273.141-.124.25-.28.318-.456a2.143 2.143 0 0 0 0-1.364 1.113 1.113 0 0 0-.312-.45 1.436 1.436 0 0 0-.557-.273 3.178 3.178 0 0 0-.818-.095h-1.786z"/>
        <path fill="#00963F" fill-rule="nonzero" d="M15.583 53.665a25.4 25.4 0 0 1-2.226-9.7l-.034-1.252L.395 67.489H8.51l7.14-13.679-.066-.145zM17.441 57.088l-.306-.479-5.676 10.88h8.114l2.565-4.914-.189-.167a26.045 26.045 0 0 1-4.508-5.32M46.525 21.432L42.468 29.2l19.99 38.283h8.115zM36.93 39.797l14.46 27.687h8.113L40.988 32.028z"/>
        <path fill="#00963F" fill-rule="nonzero" d="M27.27 37.087A13.318 13.318 0 0 0 39.096 56.52h3.606l-3.745-7.201h-.19a6.122 6.122 0 0 1-5.109-8.904l11.42-21.85-4.057-7.79L27.27 37.086z"/>
        <path fill="#00963F" fill-rule="nonzero" d="M39.107 59.136A15.933 15.933 0 0 1 24.96 35.879l14.553-27.91L35.456.18l-16.88 32.394a23.118 23.118 0 0 0 20.53 33.753h8.755l-3.784-7.19h-4.97zM74.863 36.046l3.278-8.153 3.222 8.153h-6.5zm2.494-10.229l-6.784 16.634h1.725l2.009-5.053h7.59l1.982 5.053h1.903l-6.828-16.634h-1.597zM92.344 42.451h1.697V27.17h9.4v-1.358H92.344zM120.12 32.946c-.613.516-1.672.774-3.178.774h-5.281v-6.5h5.387c2.656 0 3.984 1.048 3.984 3.144 0 1.206-.304 2.066-.912 2.582m-2.338-7.129h-7.824v16.634h1.703v-7.323h6.121a4.92 4.92 0 0 0 3.707-1.358 4.703 4.703 0 0 0 1.319-3.423 4.252 4.252 0 0 0-1.347-3.3 5.22 5.22 0 0 0-3.679-1.23zM141.078 39.101a6.962 6.962 0 0 1-9.789 0 7.524 7.524 0 0 1-1.83-5.264 7.513 7.513 0 0 1 1.841-5.27 6.929 6.929 0 0 1 9.778 0 7.519 7.519 0 0 1 1.842 5.258 7.507 7.507 0 0 1-1.842 5.26m-4.892-13.869c-2.637 0-4.715.818-6.233 2.454a8.715 8.715 0 0 0-2.27 6.155 8.715 8.715 0 0 0 2.27 6.156c1.514 1.636 3.63 2.454 6.35 2.454 2.72 0 4.798-.757 6.233-2.27 1.44-1.51 2.16-3.574 2.16-6.19 0-2.615-.754-4.726-2.26-6.333-1.506-1.606-3.59-2.41-6.25-2.41v-.016zM151.174 39.18c-.06.436-.18.863-.357 1.268-.027.045-.244.095-1.508-.195l-.718-.156-.39 2.755.64.111c.66.117 1.329.176 1.999.179a3.222 3.222 0 0 0 1.936-.557 2.621 2.621 0 0 0 1.052-1.697l2.555-13.062h4.697V43.12h3.038V25.15h-10.117l-2.827 14.03zM172.02 33.853a6.823 6.823 0 0 1 1.67-4.82 6.26 6.26 0 0 1 8.793 0 6.817 6.817 0 0 1 1.67 4.81 6.817 6.817 0 0 1-1.67 4.813 6.305 6.305 0 0 1-8.804 0 6.823 6.823 0 0 1-1.67-4.814m6.078-9.277c-2.822 0-5.081.901-6.723 2.671a9.389 9.389 0 0 0-2.449 6.606 9.405 9.405 0 0 0 2.45 6.612c1.635 1.77 3.94 2.665 6.833 2.665 2.894 0 5.154-.823 6.717-2.493 1.564-1.67 2.338-3.896 2.338-6.678 0-2.783-.818-5.07-2.438-6.79-1.62-1.72-3.895-2.593-6.728-2.593zM192.851 43.12h3.034V27.836h9.4V25.15H192.85zM210.861 25.149h3.083v17.97h-3.083zM234.123 36.28a5.916 5.916 0 0 1-1.87 3.15 4.591 4.591 0 0 1-2.966 1.024c-1.931 0-3.34-.557-4.296-1.67-.958-1.113-1.464-2.783-1.464-4.947 0-2.165.529-3.796 1.575-4.926a5.27 5.27 0 0 1 4.107-1.67c2.499 0 4.063 1.008 4.78 3.084l.15.45h3.012l-.24-.85a6.945 6.945 0 0 0-2.782-3.974 8.587 8.587 0 0 0-4.937-1.375 8.442 8.442 0 0 0-6.4 2.543c-1.586 1.67-2.393 3.896-2.393 6.64 0 2.938.79 5.253 2.343 6.89a8.114 8.114 0 0 0 6.122 2.481c2.187 0 3.951-.556 5.254-1.67a10.162 10.162 0 0 0 2.95-4.802l.277-.868h-3.1l-.122.49zM241.992 27.882h6.172v15.237h3.039V27.882h6.166v-2.733h-15.377zM274.7 27.448l-8.037 9.082V25.15h-3.01v17.97h3.01v-2.444l8.036-9.088V43.12h3.01V25.15h-3.01zM296.342 25.862l.05-.713h-2.977l-.028.635c-.094 2.098-.556 3.69-1.436 4.736a5.476 5.476 0 0 1-3.278 1.758V25.15h-3.005v17.97h3.005v-8.058a12.5 12.5 0 0 0 2.037-.557l5.36 8.615h3.444l-6.366-9.884c1.892-1.519 2.966-3.995 3.194-7.373M308.87 35.378l2.287-5.682 2.226 5.682h-4.513zm3.55-10.229h-2.499l-7.301 17.97h3.166l2.01-5.053h6.678l1.981 5.053h3.34l-7.375-17.97z"/>
    </g>
</svg>
