<svg xmlns="http://www.w3.org/2000/svg" width="22" height="23" viewBox="0 0 22 23">
    <path fill="none" fill-rule="evenodd" stroke="#00963F" stroke-linecap="round" stroke-linejoin="round" stroke-width="2" d="M21 16.735v3a2 2 0 0 1-2.18 2 19.79 19.79 0 0 1-8.63-3.07 19.5 19.5 0 0 1-6-6 19.79 19.79 0 0 1-3.07-8.67 2 2 0 0 1 1.99-2.18h3a2 2 0 0 1 2 1.72c.127.96.361 1.902.7 2.81a2 2 0 0 1-.45 2.11l-1.27 1.27a16 16 0 0 0 6 6l1.27-1.27a2 2 0 0 1 2.11-.45c.907.338 1.85.573 2.81.7a2 2 0 0 1 1.72 2.03z"/>
</svg>
