<svg xmlns="http://www.w3.org/2000/svg" width="327" height="151" viewBox="0 0 327 151">
    <g fill="none" fill-rule="evenodd">
        <path fill="#00963F" fill-rule="nonzero" d="M137.173 70.024a33.353 33.353 0 0 1-2.918-12.691l-.046-1.638-16.936 32.411h10.625l9.349-17.907-.074-.175zM139.606 74.506l-.4-.627-7.435 14.238h10.624l3.36-6.424-.249-.226a33.76 33.76 0 0 1-5.9-6.96M177.68 27.818l-5.313 10.173 26.178 50.126h10.625zM165.124 51.868l18.93 36.25h10.624l-24.242-46.429z"/>
        <path fill="#00963F" fill-rule="nonzero" d="M152.49 48.3a17.428 17.428 0 0 0 15.48 25.438h4.741l-4.917-9.422h-.248a8.01 8.01 0 0 1-6.69-11.64l14.938-28.606-5.312-10.162-17.976 34.437-.017-.045z"/>
        <path fill="#00963F" fill-rule="nonzero" d="M167.97 77.182a20.854 20.854 0 0 1-18.518-30.446l19.082-36.543L163.22.031l-22.124 42.375a30.271 30.271 0 0 0 26.884 44.193h11.426l-4.917-9.417h-6.52zM5.674 120.697l4.29-10.67 4.217 10.67H5.674zm3.257-13.396l-8.88 21.785h2.258l2.625-6.616h9.942l2.585 6.616h2.496l-8.932-21.785H8.931zM28.56 129.086h2.225v-20.013h12.301v-1.772H28.56zM64.928 116.644c-.801.677-2.184 1.01-4.16 1.01h-6.916v-8.513h7.08c3.477 0 5.218 1.372 5.221 4.116 0 1.58-.399 2.71-1.196 3.387m-3.06-9.343h-10.27v21.785h2.225v-9.597h8.016c2.084 0 3.698-.593 4.856-1.773a6.165 6.165 0 0 0 1.727-4.482 5.583 5.583 0 0 0-1.761-4.324c-1.175-1.067-2.784-1.61-4.822-1.61h.029zM92.37 124.7a8.237 8.237 0 0 1-6.401 2.636c-2.68 0-4.82-.877-6.419-2.63-1.6-1.754-2.397-4.05-2.394-6.888 0-2.841.804-5.143 2.411-6.904a9.078 9.078 0 0 1 12.804 0c1.603 1.765 2.407 4.06 2.41 6.887.004 2.827-.8 5.122-2.41 6.888m-6.402-18.156c-3.459 0-6.18 1.07-8.163 3.212a12.42 12.42 0 0 0 0 16.118c1.98 2.138 4.75 3.208 8.31 3.212 3.56.004 6.281-.988 8.163-2.975 1.882-1.98 2.823-4.688 2.823-8.124 0-3.436-.986-6.2-2.958-8.293-1.973-2.093-4.697-3.139-8.175-3.139v-.011zM105.587 124.802a5.962 5.962 0 0 1-.469 1.66c-.034.056-.316.123-1.97-.255l-.92-.203-.525 3.574.835.146c.861.156 1.734.235 2.609.237a4.234 4.234 0 0 0 2.54-.767 3.432 3.432 0 0 0 1.378-2.219l3.32-17.055h6.13v20.041h3.952v-23.513H109.29l-3.703 18.354zM132.883 117.83c0-2.637.717-4.703 2.185-6.312 1.467-1.61 3.325-2.36 5.752-2.36a7.34 7.34 0 0 1 5.759 2.36c1.467 1.609 2.179 3.67 2.179 6.294 0 2.626-.712 4.692-2.18 6.3a7.34 7.34 0 0 1-5.758 2.36c-2.45 0-4.335-.767-5.77-2.342-1.433-1.575-2.167-3.659-2.167-6.3m7.937-12.16c-3.692 0-6.656 1.173-8.801 3.494a13.256 13.256 0 0 0 0 17.303c2.145 2.32 5.154 3.494 8.948 3.494 3.794 0 6.775-1.095 8.801-3.251 2.027-2.157 3.066-5.081 3.066-8.723 0-3.64-1.078-6.633-3.196-8.891-2.117-2.258-5.103-3.427-8.818-3.427zM160.156 129.961h3.974v-20.013h12.302v-3.517h-16.276zM183.743 106.431h4.042v23.53h-4.042zM214.2 121.002a7.734 7.734 0 0 1-2.45 4.127 6.018 6.018 0 0 1-3.924 1.344c-2.523 0-4.364-.712-5.617-2.18-1.253-1.467-1.92-3.67-1.92-6.48 0-2.812.695-4.969 2.061-6.453a6.91 6.91 0 0 1 5.38-2.202c3.269 0 5.318 1.321 6.255 4.03l.204.594h3.952l-.311-1.13a9.033 9.033 0 0 0-3.624-5.199 11.218 11.218 0 0 0-6.493-1.784c-3.472 0-6.294 1.13-8.383 3.33-2.089 2.203-3.133 5.116-3.133 8.69 0 3.844 1.033 6.881 3.065 9.032 2.032 2.15 4.754 3.252 8.05 3.252 2.857 0 5.172-.728 6.882-2.168 1.71-1.44 2.97-3.529 3.856-6.29l.367-1.128h-4.042l-.175.615zM224.503 110.01h8.079v19.951h3.98v-19.95h8.078v-3.58h-20.137zM267.324 109.44l-10.518 11.895v-14.904h-3.946v23.53h3.946v-3.2l10.518-11.895v15.095h3.94v-23.53h-3.94zM295.664 107.363l.062-.932h-3.895l-.04.83c-.124 2.75-.756 4.833-1.88 6.21a7.108 7.108 0 0 1-4.285 2.286v-9.309h-3.951v23.53h3.951v-10.545c.905-.16 1.795-.396 2.66-.706l7.022 11.257h4.517l-8.333-12.94c2.473-1.992 3.878-5.238 4.178-9.659M312.092 119.822l2.987-7.44 2.947 7.44h-5.934zm4.647-13.374h-3.27l-9.596 23.53h4.155l2.625-6.616h8.756l2.591 6.616h4.392l-9.653-23.53z"/>
        <path fill="#FFF" d="M271.19 150.042l2.575-4.245a2.732 2.732 0 0 1-.75-.254 2.157 2.157 0 0 1-.751-.655 2.89 2.89 0 0 1-.424-.87 3.387 3.387 0 0 1-.141-1.004c-.007-.406.062-.81.203-1.191.132-.357.345-.677.621-.938a2.63 2.63 0 0 1 1.09-.564 5.81 5.81 0 0 1 1.564-.18h3.144v10.161h-1.056v-4.426h-2.292l-2.681 4.426h-1.276l.175-.26zm1.599-7.028c-.005.297.039.592.13.875.152.479.544.843 1.033.96.344.092.699.136 1.055.13h2.258v-3.907h-2.258a2.433 2.433 0 0 0-1.693.485 1.519 1.519 0 0 0-.373.593c-.098.277-.15.57-.152.864zm-13.81-2.857h.876v4.302h5.295v-4.302h1.067v10.162h-1.067v-4.962h-5.295v4.962h-1.067v-10.162h.192zm-12.9 0h.882v4.302h5.295v-4.302h1.061v10.162h-1.061v-4.962h-5.295v4.962h-1.067v-10.162h.186zm-11.222 0h5.927v.92h-5.04v3.388h4.826v.909h-4.827v4.053h5.166v.909h-6.21v-10.162l.158-.017zm-12.104 9.383v-1.13l.31.26c.177.152.365.288.565.407.199.113.406.21.62.288.25.087.507.146.769.175.342.043.687.064 1.033.062.417.007.833-.045 1.236-.152.32-.086.618-.238.875-.446.23-.191.411-.435.525-.712a2.62 2.62 0 0 0 .18-1.005 1.846 1.846 0 0 0-.168-.807 1.615 1.615 0 0 0-.497-.598 2.258 2.258 0 0 0-.813-.39 4.138 4.138 0 0 0-1.13-.135h-1.778v-.932h1.779c.334.005.668-.03.993-.107a2.19 2.19 0 0 0 .717-.31c.182-.124.33-.29.43-.486.098-.214.146-.448.14-.683a2.41 2.41 0 0 0-.135-.841 1.536 1.536 0 0 0-.4-.593 1.694 1.694 0 0 0-.74-.373 5.08 5.08 0 0 0-1.231-.13 4.821 4.821 0 0 0-1.338.18 8.084 8.084 0 0 0-1.383.583l-.283.14v-1.128l.119-.051c.232-.096.469-.18.706-.26.237-.079.49-.147.745-.214a6.684 6.684 0 0 1 3.122-.017c.398.102.767.295 1.078.564.268.242.478.541.616.875.135.361.202.744.197 1.13.002.262-.032.525-.102.778a2.382 2.382 0 0 1-.316.69 2.06 2.06 0 0 1-.525.535l-.203.125c.11.044.216.099.316.163.246.144.459.336.627.565.17.236.297.5.378.779.086.301.128.613.124.926.01.462-.067.92-.226 1.355a2.76 2.76 0 0 1-.694 1.027 2.941 2.941 0 0 1-1.18.644 5.939 5.939 0 0 1-1.643.203c-.358.002-.716-.015-1.072-.05a4.838 4.838 0 0 1-.836-.153 5.967 5.967 0 0 1-.711-.254 7.255 7.255 0 0 1-.728-.362l-.096-.056.028-.08zm-10.405-9.383h5.928v.92h-5.041v3.388h4.832v.909h-4.832v4.053h5.165v.909h-6.21v-10.162l.158-.017zm-11.522 0h3.161a4.72 4.72 0 0 1 1.288.164c.358.1.693.273.982.508.269.225.48.512.615.836.146.348.217.723.21 1.1.005.3-.031.598-.108.887a1.79 1.79 0 0 1-.322.666c-.15.18-.323.339-.514.474l-.147.096c.12.05.236.11.345.18.238.146.443.338.604.565.181.243.317.517.4.808.094.315.14.642.136.97.008.421-.067.84-.22 1.231a2.428 2.428 0 0 1-.672.937c-.309.263-.67.455-1.061.565-.455.13-.927.193-1.4.186h-3.483v-10.162l.186-.01zm.87.915v3.46h2.19c.327.005.653-.033.97-.112.238-.056.46-.164.65-.317.167-.14.295-.32.373-.525a2.15 2.15 0 0 0 .13-.784 2.111 2.111 0 0 0-.13-.774c-.08-.199-.209-.375-.373-.514a1.75 1.75 0 0 0-.65-.321 3.76 3.76 0 0 0-.97-.113h-2.19zm0 4.375v3.952h2.36c.36.007.721-.035 1.072-.124.263-.072.51-.197.722-.367.185-.163.326-.368.412-.599a2.823 2.823 0 0 0 0-1.8 1.406 1.406 0 0 0-.412-.593 1.778 1.778 0 0 0-.722-.362 3.952 3.952 0 0 0-1.073-.13l-2.36.023zm-12.11-5.29h5.922v.92h-5.042v3.388h4.827v.909h-4.832v4.053h5.165v.909h-6.232v-10.162l.192-.017zm-10.817 0h2.766c.468-.007.934.056 1.383.186.384.11.74.302 1.04.565.284.26.501.585.632.948a4.087 4.087 0 0 1 0 2.547 2.416 2.416 0 0 1-.633.954c-.3.263-.655.455-1.039.564-.449.131-.915.194-1.383.186h-1.897v4.212h-1.06v-10.162h.191zm.87.92v4.127h1.896c.32.004.638-.044.943-.14.253-.08.484-.215.678-.396.188-.178.332-.396.423-.638.1-.288.148-.592.141-.898.007-.3-.041-.598-.141-.88a1.694 1.694 0 0 0-.423-.638 1.846 1.846 0 0 0-.678-.401 2.992 2.992 0 0 0-.943-.136h-1.897zm-12.104-.92h5.927v.92h-5.041v3.388h4.855v.909h-4.855v4.053h5.166v.909h-6.239v-10.162l.187-.017zm-13.064 9.987v-9.987h7.418v10.162h-1.033v-9.253h-5.301v9.264h-1.061l-.023-.186zm-17.117-9.987h.92v10.162h-1.129v-10.162h.209zm-12.889 0h.875v4.302h5.296v-4.302h1.061v10.162h-1.061v-4.962h-5.296v4.962h-1.067v-10.162h.192zm-17.94 9.88l4.019-5.764-4.172-4.116h1.445l4.765 4.703v-4.703h1.055v4.68l4.765-4.702h1.44l-4.15 4.138 4.229 6.057h-1.355l-3.67-5.267-1.242 1.22v4.047H112.6v-4.047l-1.242-1.22-3.676 5.267h-1.349l.192-.293zm-8.334-9.88h1.017c1.34 3.387 2.683 6.775 4.03 10.162h-1.18l-1.208-3.077h-4.476l-1.209 3.077h-1.129c1.333-3.387 2.673-6.775 4.02-10.162h.135zm.435 1.372l-1.897 4.804h3.76l-1.863-4.804zm-15.344-1.372h8.073v.915h-3.602v9.258h-1.061v-9.258H83.09v-.915h.192zm-11.517 0h.88v4.302h5.296v-4.302h1.061v10.162h-1.06v-4.962h-5.296v4.962H71.6v-10.162h.164zm-9.349 0h1.016c1.34 3.387 2.684 6.775 4.031 10.162h-1.185l-1.209-3.077h-4.476l-1.203 3.077h-1.129a2843.53 2843.53 0 0 1 4.02-10.162h.135zm.435 1.372l-1.897 4.804h3.76l-1.863-4.804zm-14.554-1.372h3.161c.433-.005.864.05 1.282.164.359.1.693.273.982.508.27.225.484.511.621.836.14.35.21.724.203 1.1a3.45 3.45 0 0 1-.101.887c-.062.242-.173.47-.328.666a2.54 2.54 0 0 1-.513.474l-.147.096c.12.051.238.112.35.18.235.147.438.34.598.565.182.243.32.517.407.808.088.316.132.642.13.97.007.421-.067.84-.22 1.231a2.371 2.371 0 0 1-.672.937c-.309.264-.671.456-1.062.565-.455.13-.927.194-1.4.186h-3.483v-10.162l.192-.01zm.87.915v3.46h2.184a3.76 3.76 0 0 0 .971-.112c.237-.056.46-.164.65-.317.168-.138.297-.32.372-.525a2.15 2.15 0 0 0 .13-.784 2.111 2.111 0 0 0-.13-.774 1.208 1.208 0 0 0-.373-.514 1.694 1.694 0 0 0-.649-.321 3.732 3.732 0 0 0-.971-.113h-2.185zm0 4.375v3.952h2.359c.36.007.719-.035 1.067-.124.264-.07.51-.195.723-.367.186-.163.329-.368.417-.599a2.941 2.941 0 0 0 0-1.8 1.417 1.417 0 0 0-.417-.593 1.79 1.79 0 0 0-.717-.362 4.014 4.014 0 0 0-1.073-.13l-2.36.023z"/>
    </g>
</svg>
