<svg xmlns="http://www.w3.org/2000/svg" width="22" height="22" viewBox="0 0 22 22">
    <path fill="#04B950" fill-rule="nonzero" d="M11 0c6.075 0 11 4.925 11 11s-4.925 11-11 11S0 17.075 0 11 4.925 0 11 0zM8.243 15.172l-2.86 2.86A8.962 8.962 0 0 0 11 20a8.962 8.962 0 0 0 5.617-1.968l-2.86-2.86A4.977 4.977 0 0 1 11 16a4.977 4.977 0 0 1-2.757-.828zm9.79-9.79l-2.861 2.86C15.695 9.034 16 9.982 16 11c0 1.02-.305 1.967-.828 2.757l2.86 2.86A8.962 8.962 0 0 0 20 11a8.962 8.962 0 0 0-1.968-5.617zM2 11c0 2.125.736 4.078 1.968 5.617l2.86-2.86A4.977 4.977 0 0 1 6 11c0-1.02.305-1.967.828-2.757l-2.86-2.86A8.962 8.962 0 0 0 2 11zm9-3a3 3 0 1 0 0 6 3 3 0 0 0 0-6zm0-6a8.962 8.962 0 0 0-5.617 1.968l2.86 2.86A4.977 4.977 0 0 1 11 6c1.02 0 1.967.305 2.757.828l2.86-2.86A8.962 8.962 0 0 0 11 2z"/>
</svg>
